<svg width="96" height="96" xmlns="http://www.w3.org/2000/svg" xmlns:xlink="http://www.w3.org/1999/xlink" overflow="hidden"><defs><clipPath id="clip0"><rect x="888" y="163" width="96" height="96"/></clipPath></defs><g clip-path="url(#clip0)" transform="translate(-888 -163)"><path d="M950 183 956 183 956 177 944 177 944 201 950 201Z"/><path d="M928 229 904 229 904 205C904 198.4 909.4 193 916 193 922.6 193 928 198.4 928 205L928 229ZM956 187 954 187 954 205 940 205 940 187 916 187C906.1 187 898 195.1 898 205L898 235 932 235 932 245 940 245 940 235 974 235 974 205C974 195.1 965.9 187 956 187Z"/></g></svg>