<svg width="330" height="330" xmlns="http://www.w3.org/2000/svg" xmlns:xlink="http://www.w3.org/1999/xlink" overflow="hidden"><defs><clipPath id="clip0"><rect x="164" y="1255" width="330" height="330"/></clipPath></defs><g clip-path="url(#clip0)" transform="translate(-164 -1255)"><path d="M445.875 1399.38 212.125 1399.38 212.125 1344.38 445.875 1344.38 445.875 1399.38ZM445.875 1495.62 212.125 1495.62 212.125 1440.62 445.875 1440.62 445.875 1495.62ZM452.75 1323.75 205.25 1323.75C197.687 1323.75 191.5 1329.94 191.5 1337.5L191.5 1502.5C191.5 1510.06 197.687 1516.25 205.25 1516.25L452.75 1516.25C460.312 1516.25 466.5 1510.06 466.5 1502.5L466.5 1337.5C466.5 1329.94 460.312 1323.75 452.75 1323.75Z"/><path d="M232.75 1461.25 287.75 1461.25 287.75 1475 232.75 1475Z"/><path d="M301.5 1461.25 329 1461.25 329 1475 301.5 1475Z"/><path d="M0 0 261.25 294.759" stroke="#FF0000" stroke-width="27.5" stroke-miterlimit="8" fill="none" fill-rule="evenodd" transform="matrix(1 0 0 -1 205 1567.76)"/></g></svg>