<svg width="96" height="96" xmlns="http://www.w3.org/2000/svg" xmlns:xlink="http://www.w3.org/1999/xlink" overflow="hidden"><defs><clipPath id="clip0"><rect x="48" y="530" width="96" height="96"/></clipPath></defs><g clip-path="url(#clip0)" transform="translate(-48 -530)"><path d="M130 572 62 572 62 556 130 556 130 572ZM130 600 62 600 62 584 130 584 130 600ZM132 550 60 550C57.8 550 56 551.8 56 554L56 602C56 604.2 57.8 606 60 606L132 606C134.2 606 136 604.2 136 602L136 554C136 551.8 134.2 550 132 550Z"/><path d="M68 590 84 590 84 594 68 594Z"/><path d="M88 590 96 590 96 594 88 594Z"/></g></svg>