<svg width="97" height="97" xmlns="http://www.w3.org/2000/svg" xmlns:xlink="http://www.w3.org/1999/xlink" overflow="hidden"><defs><clipPath id="clip0"><rect x="1024" y="41" width="97" height="97"/></clipPath></defs><g clip-path="url(#clip0)" transform="translate(-1024 -41)"><path d="M1104.83 106.635C1104.78 103.668 1103.39 100.883 1101.06 99.0505 1097.28 95.9606 1092.84 94.0519 1088.18 92.3817L1083.23 90.3508C1082.85 90.1965 1082.61 89.8286 1082.6 89.4192L1082.6 86.9457C1086.3 83.9883 1088.5 79.5593 1088.64 74.8308L1091.32 70.2415C1091.7 69.331 1091.86 68.3393 1091.77 67.3547 1091.18 60.733 1087.17 54.9036 1081.19 51.9964 1080.71 51.7702 1080.14 51.8208 1079.71 52.1287L1078.69 52.836 1077.56 51.2931C1077.21 50.8062 1076.69 50.4733 1076.1 50.3645 1075.05 50.183 1073.98 50.0924 1072.92 50.0938 1063.81 50.0935 1056 56.5695 1054.31 65.5127L1054.27 65.733C1053.78 68.3569 1052.76 70.8546 1051.28 73.0757L1056.34 73.0757 1056.34 74.3438C1056.34 79.2437 1058.57 83.8775 1062.39 86.9386L1062.39 89.4192C1062.39 89.8295 1062.14 90.1993 1061.76 90.3548L1056.78 92.3989C1052.14 94.062 1047.72 95.9646 1043.98 99.0232 1041.62 100.868 1040.22 103.681 1040.17 106.677L1040.17 124.429 1041.07 125.029C1046.02 128.334 1059.45 129.98 1072.78 129.98 1086.22 129.98 1099.56 128.305 1104.02 124.964L1104.82 124.357ZM1087.16 103.646C1088.27 103.646 1089.18 104.551 1089.18 105.667 1089.18 106.783 1088.27 107.688 1087.16 107.688 1086.04 107.688 1085.14 106.783 1085.14 105.667 1085.14 104.551 1086.04 103.646 1087.16 103.646ZM1060.38 74.3438 1060.38 73.0757 1067.51 73.0757C1077.9 73.0757 1076.48 64.7973 1081.03 63.6121 1082.24 63.3818 1083.5 63.5347 1084.62 64.0496L1084.62 74.3438C1084.62 81.0402 1079.2 86.4688 1072.5 86.4688 1065.8 86.4688 1060.38 81.0402 1060.38 74.3438ZM1072.5 90.5104C1074.58 90.5098 1076.64 90.1059 1078.56 89.3212L1078.56 89.4222C1078.56 90.9873 1079.29 92.4639 1080.53 93.4154 1077.93 94.1984 1075.22 94.5817 1072.5 94.5521 1069.78 94.5804 1067.07 94.1958 1064.46 93.4113 1065.71 92.4603 1066.44 90.9845 1066.44 89.4192L1066.44 89.3181C1068.36 90.1044 1070.42 90.5093 1072.5 90.5104ZM1100.79 122.244C1091.82 127.124 1054.02 127.087 1044.21 122.182L1044.21 106.723C1044.25 104.94 1045.09 103.271 1046.5 102.182 1049.62 99.7964 1053.11 97.9386 1056.84 96.682L1056.84 101.142C1052.86 101.408 1049.77 104.711 1049.77 108.698 1049.77 109.127 1049.95 109.534 1050.27 109.819L1050.27 116.276C1050.27 117.683 1051.24 118.903 1052.61 119.221 1053.13 119.885 1054.08 120.009 1054.74 119.499 1055.4 118.989 1055.53 118.037 1055.02 117.373 1054.51 116.71 1053.56 116.586 1052.89 117.096 1052.87 117.113 1052.85 117.131 1052.83 117.15 1052.5 116.979 1052.3 116.643 1052.29 116.276L1052.29 109.819C1052.61 109.535 1052.8 109.127 1052.8 108.698 1052.8 106.187 1054.83 104.151 1057.34 104.151L1058.35 104.151C1060.87 104.151 1062.9 106.187 1062.9 108.698 1062.9 109.127 1063.09 109.534 1063.41 109.819L1063.41 116.276C1063.4 116.643 1063.2 116.979 1062.87 117.15 1062.24 116.603 1061.28 116.674 1060.74 117.307 1060.19 117.941 1060.26 118.898 1060.89 119.445 1061.53 119.992 1062.48 119.921 1063.03 119.288 1063.05 119.266 1063.07 119.244 1063.08 119.221 1064.45 118.902 1065.42 117.683 1065.43 116.276L1065.43 109.819C1065.75 109.535 1065.93 109.127 1065.93 108.698 1065.93 104.712 1062.84 101.411 1058.86 101.145L1058.86 95.9495C1059.13 95.8484 1059.41 95.7545 1059.68 95.6595 1062.65 97.5096 1067.32 98.5938 1072.5 98.5938 1077.68 98.5938 1082.35 97.5106 1085.31 95.6635 1085.59 95.7646 1085.87 95.8586 1086.14 95.9566L1086.14 101.705C1086.14 101.728 1086.16 101.746 1086.16 101.768 1083.99 102.32 1082.69 104.52 1083.24 106.683 1083.79 108.846 1085.99 110.153 1088.15 109.602 1090.32 109.051 1091.62 106.85 1091.07 104.687 1090.71 103.253 1089.59 102.134 1088.15 101.768 1088.15 101.746 1088.16 101.727 1088.16 101.705L1088.16 96.6861C1091.9 97.9474 1095.4 99.8121 1098.53 102.206 1099.92 103.281 1100.75 104.923 1100.79 106.677Z"/><path d="M1088.17 105.667C1088.17 106.225 1087.71 106.677 1087.16 106.677 1086.6 106.677 1086.15 106.225 1086.15 105.667 1086.15 105.109 1086.6 104.656 1087.16 104.656 1087.71 104.656 1088.17 105.109 1088.17 105.667Z"/></g></svg>