<svg width="96" height="96" xmlns="http://www.w3.org/2000/svg" xmlns:xlink="http://www.w3.org/1999/xlink" overflow="hidden"><defs><clipPath id="clip0"><rect x="724" y="163" width="96" height="96"/></clipPath></defs><g clip-path="url(#clip0)" transform="translate(-724 -163)"><path d="M732 183 732 239 812 239 812 183 732 183ZM773.4 217.9C772.6 218.7 771.4 218.7 770.6 217.9L741 189 803.1 189 773.4 217.9ZM757.5 210.7 738 230.3 738 191.6 757.5 210.7ZM760.4 213.5 767.9 220.8C769.1 221.9 770.6 222.5 772.1 222.5 773.6 222.5 775.1 221.9 776.3 220.8L783.8 213.5 803.2 233 740.9 233 760.4 213.5ZM786.5 210.7 806 191.7 806 230.2 786.5 210.7Z"/></g></svg>