<svg width="330" height="337" xmlns="http://www.w3.org/2000/svg" xmlns:xlink="http://www.w3.org/1999/xlink" overflow="hidden"><defs><clipPath id="clip0"><rect x="1650" y="625" width="330" height="337"/></clipPath><clipPath id="clip1"><rect x="1650" y="624" width="330" height="331"/></clipPath><clipPath id="clip2"><rect x="1650" y="624" width="330" height="331"/></clipPath><clipPath id="clip3"><rect x="1650" y="624" width="330" height="331"/></clipPath></defs><g clip-path="url(#clip0)" transform="translate(-1650 -625)"><g clip-path="url(#clip1)"><g clip-path="url(#clip2)"><g clip-path="url(#clip3)"><path d="M1677.5 693.75 1677.5 886.25 1952.5 886.25 1952.5 693.75 1677.5 693.75ZM1819.81 813.719C1817.06 816.469 1812.94 816.469 1810.19 813.719L1708.44 714.375 1921.91 714.375 1819.81 813.719ZM1765.16 788.969 1698.12 856.344 1698.12 723.312 1765.16 788.969ZM1775.12 798.594 1800.91 823.687C1805.03 827.469 1810.19 829.531 1815.34 829.531 1820.5 829.531 1825.66 827.469 1829.78 823.687L1855.56 798.594 1922.25 865.625 1708.09 865.625 1775.12 798.594ZM1864.84 788.969 1931.88 723.656 1931.88 856 1864.84 788.969Z"/></g></g></g><path d="M0 0 261.25 294.759" stroke="#FF0000" stroke-width="27.5" stroke-miterlimit="8" fill="none" fill-rule="evenodd" transform="matrix(1 0 0 -1 1685 951.759)"/></g></svg>