<svg width="96" height="96" xmlns="http://www.w3.org/2000/svg" xmlns:xlink="http://www.w3.org/1999/xlink" overflow="hidden"><defs><clipPath id="clip0"><rect x="208" y="530" width="96" height="96"/></clipPath></defs><g clip-path="url(#clip0)" transform="translate(-208 -530)"><path d="M252 610 250 610 250 606 222 606 222 610 220 610C217.8 610 216 611.8 216 614 216 616.2 217.8 618 220 618L252 618C254.2 618 256 616.2 256 614 256 611.8 254.2 610 252 610Z"/><path d="M251.9 590.1C253.1 588.9 253.1 587 251.9 585.9L236.1 570.1C234.9 568.9 233 568.9 231.9 570.1L228 574 248 594 251.9 590.1Z"/><path d="M275.9 561.9C277.1 563.1 279 563.1 280.1 561.9L284 558 264 538 260.1 541.9C258.9 543.1 258.9 545 260.1 546.1L275.9 561.9Z"/><path d="M295 597 268 570 274 564 258 548 238 568 254 584 262 576 289 603C290.7 604.7 293.3 604.7 295 603 296.7 601.3 296.7 598.7 295 597Z"/></g></svg>