<svg width="330" height="330" xmlns="http://www.w3.org/2000/svg" xmlns:xlink="http://www.w3.org/1999/xlink" overflow="hidden"><defs><clipPath id="clip0"><rect x="714" y="1255" width="330" height="330"/></clipPath></defs><g clip-path="url(#clip0)" transform="translate(-714 -1255)"><path d="M865.25 1530 858.375 1530 858.375 1516.25 762.125 1516.25 762.125 1530 755.25 1530C747.687 1530 741.5 1536.19 741.5 1543.75 741.5 1551.31 747.687 1557.5 755.25 1557.5L865.25 1557.5C872.812 1557.5 879 1551.31 879 1543.75 879 1536.19 872.812 1530 865.25 1530Z"/><path d="M864.906 1461.59C869.031 1457.47 869.031 1450.94 864.906 1447.16L810.594 1392.84C806.469 1388.72 799.937 1388.72 796.156 1392.84L782.75 1406.25 851.5 1475 864.906 1461.59Z"/><path d="M947.406 1364.66C951.531 1368.78 958.062 1368.78 961.844 1364.66L975.25 1351.25 906.5 1282.5 893.094 1295.91C888.969 1300.03 888.969 1306.56 893.094 1310.34L947.406 1364.66Z"/><path d="M1013.06 1485.31 920.25 1392.5 940.875 1371.88 885.875 1316.88 817.125 1385.62 872.125 1440.62 899.625 1413.12 992.437 1505.94C998.281 1511.78 1007.22 1511.78 1013.06 1505.94 1018.91 1500.09 1018.91 1491.16 1013.06 1485.31Z"/><path d="M0 0 261.25 294.759" stroke="#FF0000" stroke-width="27.5" stroke-miterlimit="8" fill="none" fill-rule="evenodd" transform="matrix(1 0 0 -1 741 1567.76)"/></g></svg>