<svg width="97" height="97" xmlns="http://www.w3.org/2000/svg" xmlns:xlink="http://www.w3.org/1999/xlink" overflow="hidden"><defs><clipPath id="clip0"><rect x="848" y="41" width="97" height="97"/></clipPath></defs><g clip-path="url(#clip0)" transform="translate(-848 -41)"><path d="M912.667 71.3125C912.667 80.2411 905.429 87.4792 896.5 87.4792 887.571 87.4792 880.333 80.2411 880.333 71.3125 880.333 62.3839 887.571 55.1458 896.5 55.1458 905.429 55.1458 912.667 62.3839 912.667 71.3125Z"/><path d="M928.833 123.854 928.833 107.688C928.833 105.262 927.621 102.837 925.6 101.221 921.154 97.5833 915.496 95.1583 909.838 93.5417 905.796 92.3292 901.35 91.5208 896.5 91.5208 892.054 91.5208 887.608 92.3292 883.162 93.5417 877.504 95.1583 871.846 97.9875 867.4 101.221 865.379 102.837 864.167 105.262 864.167 107.688L864.167 123.854 928.833 123.854Z"/></g></svg>