<svg width="97" height="97" xmlns="http://www.w3.org/2000/svg" xmlns:xlink="http://www.w3.org/1999/xlink" overflow="hidden"><defs><clipPath id="clip0"><rect x="687" y="41" width="97" height="97"/></clipPath></defs><g clip-path="url(#clip0)" transform="translate(-687 -41)"><path d="M716.302 56.1562C716.302 60.0625 713.135 63.2292 709.229 63.2292 705.323 63.2292 702.156 60.0625 702.156 56.1562 702.156 52.25 705.323 49.0833 709.229 49.0833 713.135 49.0833 716.302 52.25 716.302 56.1562Z"/><path d="M728.276 93.673 722.658 72.4037C722.466 71.763 722.119 71.1798 721.647 70.7063 719.713 68.6916 717.327 67.1674 714.685 66.2604 712.951 65.5667 711.097 65.2233 709.229 65.25 707.372 65.2396 705.526 65.5472 703.773 66.1594 701.116 67.0402 698.72 68.568 696.801 70.6052 696.35 71.1333 696.007 71.7442 695.791 72.4037L690.183 93.673C689.76 95.2912 690.728 96.9461 692.345 97.3711 692.595 97.4393 692.854 97.4734 693.113 97.4722 694.506 97.4956 695.736 96.5659 696.094 95.219L701.146 75.92 701.146 129.917 707.208 129.917 707.208 98.5938 711.25 98.5938 711.25 129.917 717.312 129.917 717.312 75.92 722.365 95.219C722.726 96.5846 723.984 97.5193 725.396 97.4722 725.655 97.4734 725.913 97.4393 726.164 97.3711 727.761 96.9237 728.702 95.2758 728.276 93.673Z"/><path d="M768.844 56.1562C768.844 60.0625 765.677 63.2292 761.771 63.2292 757.865 63.2292 754.698 60.0625 754.698 56.1562 754.698 52.25 757.865 49.0833 761.771 49.0833 765.677 49.0833 768.844 52.25 768.844 56.1562Z"/><path d="M780.817 93.673 775.199 72.4037C774.998 71.7675 774.652 71.1865 774.189 70.7063 772.255 68.6916 769.868 67.1674 767.227 66.2604 765.493 65.5667 763.638 65.2233 761.771 65.25 759.913 65.2396 758.068 65.5472 756.315 66.1594 753.658 67.0402 751.262 68.568 749.343 70.6052 748.892 71.1333 748.549 71.7442 748.332 72.4037L742.724 93.673C742.302 95.2912 743.269 96.9461 744.887 97.3711 745.137 97.4393 745.395 97.4734 745.655 97.4722 747.048 97.4956 748.278 96.5659 748.635 95.219L753.688 75.92 753.688 82.1037 747.383 105.667 753.688 105.667 753.688 129.917 759.75 129.917 759.75 105.667 763.792 105.667 763.792 129.917 769.854 129.917 769.854 105.667 775.068 105.667 769.854 86.1757 769.854 75.92 774.906 95.219C775.268 96.5846 776.525 97.5193 777.938 97.4722 778.197 97.4734 778.455 97.4393 778.705 97.3711 780.303 96.9237 781.244 95.2758 780.817 93.673Z"/><path d="M735.5 131.938C734.384 131.938 733.479 131.033 733.479 129.917L733.479 49.0833C733.479 47.9673 734.384 47.0625 735.5 47.0625 736.616 47.0625 737.521 47.9673 737.521 49.0833L737.521 129.917C737.521 131.033 736.616 131.938 735.5 131.938Z"/></g></svg>