<svg width="330" height="337" xmlns="http://www.w3.org/2000/svg" xmlns:xlink="http://www.w3.org/1999/xlink" overflow="hidden"><defs><clipPath id="clip0"><rect x="1129" y="625" width="330" height="337"/></clipPath><clipPath id="clip1"><rect x="1128" y="624" width="331" height="331"/></clipPath><clipPath id="clip2"><rect x="1128" y="624" width="331" height="331"/></clipPath><clipPath id="clip3"><rect x="1128" y="624" width="331" height="331"/></clipPath></defs><g clip-path="url(#clip0)" transform="translate(-1129 -625)"><g clip-path="url(#clip1)"><g clip-path="url(#clip2)"><g clip-path="url(#clip3)"><path d="M1355.87 900 1232.12 900 1232.12 680 1355.87 680 1355.87 900ZM1280.25 652.5 1307.75 652.5C1311.53 652.5 1314.62 655.594 1314.62 659.375 1314.62 663.156 1311.53 666.25 1307.75 666.25L1280.25 666.25C1276.47 666.25 1273.37 663.156 1273.37 659.375 1273.37 655.594 1276.47 652.5 1280.25 652.5ZM1369.62 638.75 1218.37 638.75C1214.59 638.75 1211.5 641.844 1211.5 645.625L1211.5 934.375C1211.5 938.156 1214.59 941.25 1218.37 941.25L1369.62 941.25C1373.41 941.25 1376.5 938.156 1376.5 934.375L1376.5 645.625C1376.5 641.844 1373.41 638.75 1369.62 638.75Z"/></g></g></g><path d="M0 0 261.25 294.759" stroke="#FF0000" stroke-width="27.5" stroke-miterlimit="8" fill="none" fill-rule="evenodd" transform="matrix(1 0 0 -1 1163 951.759)"/></g></svg>