<svg width="96" height="96" xmlns="http://www.w3.org/2000/svg" xmlns:xlink="http://www.w3.org/1999/xlink" overflow="hidden"><defs><clipPath id="clip0"><rect x="222" y="163" width="96" height="96"/></clipPath></defs><g clip-path="url(#clip0)" transform="translate(-222 -163)"><path d="M274.1 245.1 243 232.2 265.8 176.9 297 189.8 274.1 245.1ZM280.8 175 287.7 177.9C288.7 178.3 289.1 179.4 288.7 180.3 288.3 181.3 287.2 181.7 286.3 181.3L279.4 178.4C278.4 178 278 176.9 278.4 176 278.7 175.1 279.8 174.6 280.8 175ZM304.7 180.8 266.7 165.1C265.7 164.7 264.7 165.2 264.3 166.1L234.3 238.7C233.9 239.7 234.4 240.7 235.3 241.1L273.3 256.8C274.3 257.2 275.3 256.7 275.7 255.8L305.6 183.2C306.1 182.3 305.6 181.2 304.7 180.8L304.7 180.8Z"/><path d="M292.4 239.7 290.1 236.3 294.6 233.3 293.3 226.7 298.9 222.9 297.6 216.3 303.2 212.6 302.1 207.3 306 206.5 307.6 214.4 302 218.2 303.3 224.8 297.7 228.5 299.1 235.2Z"/><path d="M233.9 215.6 232.4 207.6 238 203.9 236.6 197.3 242.2 193.5 240.9 186.9 247.6 182.4 249.9 185.7 245.4 188.7 246.7 195.3 241.1 199.1 242.4 205.7 236.8 209.5 237.9 214.8Z"/></g></svg>