<svg width="96" height="96" xmlns="http://www.w3.org/2000/svg" xmlns:xlink="http://www.w3.org/1999/xlink" overflow="hidden"><defs><clipPath id="clip0"><rect x="560" y="163" width="96" height="96"/></clipPath></defs><g clip-path="url(#clip0)" transform="translate(-560 -163)"><path d="M626 243 590 243 590 179 626 179 626 243ZM604 171 612 171C613.1 171 614 171.9 614 173 614 174.1 613.1 175 612 175L604 175C602.9 175 602 174.1 602 173 602 171.9 602.9 171 604 171ZM630 167 586 167C584.9 167 584 167.9 584 169L584 253C584 254.1 584.9 255 586 255L630 255C631.1 255 632 254.1 632 253L632 169C632 167.9 631.1 167 630 167Z"/></g></svg>