<svg width="96" height="96" xmlns="http://www.w3.org/2000/svg" xmlns:xlink="http://www.w3.org/1999/xlink" overflow="hidden"><defs><clipPath id="clip0"><rect x="385" y="163" width="96" height="96"/></clipPath></defs><g clip-path="url(#clip0)" transform="translate(-385 -163)"><path d="M424.2 192.2C425 191.4 425.5 190.3 425.5 189.1 425.5 187.9 425 186.8 424.2 186L410.4 172.3C409.6 171.5 408.5 171 407.4 171 406.3 171 405.1 171.5 404.3 172.3L402.8 173.8 422.7 193.7 424.2 192.2Z"/><path d="M444.3 227.5C443.9 227.9 443.3 228.1 442.8 228.1 442.3 228.1 441.7 227.9 441.3 227.5L416.5 202.8C416.1 202.4 415.9 201.8 415.9 201.3 415.9 200.8 416.1 200.2 416.5 199.8L419.6 196.8 399.7 176.9C398.4 178.2 397.2 179.4 396.4 180.2 394.4 182.1 393.2 184.6 393.1 187.3 392.8 191.8 393.9 196.1 395.4 200.3 397 204 399.1 207.5 401.4 210.8 409.6 223.1 419.9 233.8 431.9 242.3 433.9 243.8 436 245.1 438.2 246.3 443.2 248.8 448.5 250.6 454.2 251 458 251.3 461.8 249.8 464.4 247L467.1 244.3 447.3 224.4 444.3 227.5Z"/><path d="M471.7 233.6 457.9 219.8C457.1 219 456 218.5 454.8 218.5 453.6 218.5 452.5 219 451.7 219.8L450.2 221.4 470.1 241.3 471.6 239.8C472.4 239 472.9 237.9 472.9 236.7 472.9 235.5 472.5 234.4 471.7 233.6Z"/></g></svg>