<svg width="330" height="337" xmlns="http://www.w3.org/2000/svg" xmlns:xlink="http://www.w3.org/1999/xlink" overflow="hidden"><defs><clipPath id="clip0"><rect x="608" y="625" width="330" height="337"/></clipPath><clipPath id="clip1"><rect x="608" y="624" width="331" height="331"/></clipPath><clipPath id="clip2"><rect x="608" y="624" width="331" height="331"/></clipPath><clipPath id="clip3"><rect x="608" y="624" width="331" height="331"/></clipPath></defs><g clip-path="url(#clip0)" transform="translate(-608 -625)"><g clip-path="url(#clip1)"><g clip-path="url(#clip2)"><g clip-path="url(#clip3)"><path d="M742.75 725.375C745.5 722.625 747.219 718.844 747.219 714.719 747.219 710.594 745.5 706.812 742.75 704.062L695.313 656.969C692.563 654.219 688.781 652.5 685 652.5 681.219 652.5 677.094 654.219 674.344 656.969L669.188 662.125 737.594 730.531 742.75 725.375Z"/><path d="M811.844 846.719C810.469 848.094 808.406 848.781 806.688 848.781 804.969 848.781 802.906 848.094 801.531 846.719L716.281 761.812C714.906 760.437 714.219 758.375 714.219 756.656 714.219 754.937 714.906 752.875 716.281 751.5L726.938 741.187 658.531 672.781C654.063 677.25 649.938 681.375 647.188 684.125 640.313 690.656 636.188 699.25 635.844 708.531 634.813 724 638.594 738.781 643.75 753.219 649.25 765.937 656.469 777.969 664.375 789.312 692.563 831.594 727.969 868.375 769.219 897.594 776.094 902.75 783.313 907.219 790.875 911.344 808.063 919.937 826.281 926.125 845.875 927.5 858.938 928.531 872 923.375 880.938 913.75L890.219 904.469 822.156 836.062 811.844 846.719Z"/><path d="M906.031 867.687 858.594 820.25C855.844 817.5 852.063 815.781 847.938 815.781 843.813 815.781 840.031 817.5 837.281 820.25L832.125 825.75 900.531 894.156 905.688 889C908.438 886.25 910.156 882.469 910.156 878.344 910.156 874.219 908.781 870.437 906.031 867.687Z"/></g></g></g><path d="M0 0 261.25 294.759" stroke="#FF0000" stroke-width="27.5" stroke-miterlimit="8" fill="none" fill-rule="evenodd" transform="matrix(1 0 0 -1 641 951.759)"/></g></svg>